<?xml version="1.0" encoding="UTF-8"?><svg width="800px" height="400px" xmlns="http://www.w3.org/2000/svg" xmlns:xlink="http://www.w3.org/1999/xlink" contentScriptType="text/ecmascript" zoomAndPan="magnify" contentStyleType="text/css" viewBox="0 0 2815 1415" preserveAspectRatio="xMidYMid meet" version="1.1">
  <defs/>
  <g transform="matrix(1,0,0,1,0,0)">
    <g>
      <g>
        <path fill="none" stroke-dasharray="" paint-order="fill stroke markers" d=" M 0 0 L 2800 0 L 2800 1400 L 0 1400 L 0 0 Z Z" stroke="#d3d3d3" stroke-opacity="0.8" stroke-miterlimit="10"/>
      </g>
      <g id="_ED165B85-E65D-42A6-B0EF-8A160356271E" transform="matrix(1,0,0,1,103,183)" bpmn2nodeid="_ED165B85-E65D-42A6-B0EF-8A160356271E">
        <g>
          <path fill="none" stroke="none"/>
        </g>
        <g transform="matrix(0.125,0,0,0.125,0,0)">
          <g transform="matrix(1,0,0,1,0,0)">
            <path fill="#C0C0C0" d=" M 0 0 M 444 224 C 444 263.9 434.2 300.8 414.4 334.5 C 394.7 368.2 368 394.9 334.4 414.5 C 300.79999999999995 434.1 263.9 444 224 444 C 184.10000000000002 444 147.2 434.2 113.5 414.4 C 79.8 394.7 53.1 368 33.5 334.4 C 13.899999999999999 300.79999999999995 4 263.9 4 224 C 4 184.10000000000002 13.8 147.2 33.6 113.5 C 53.400000000000006 79.80000000000001 80.1 53.1 113.6 33.5 C 147.1 13.899999999999999 184.1 4 224 4 C 263.9 4 300.8 13.8 334.5 33.6 C 368.2 53.400000000000006 394.9 80.1 414.5 113.6 C 434.1 147.1 444 184.1 444 224 Z" paint-order="stroke fill markers" id="_ED165B85-E65D-42A6-B0EF-8A160356271E?shapeType=BACKGROUND" stroke="none"/>
          </g>
          <g>
            <g transform="matrix(1,0,0,1,0,0)">
              <g transform="matrix(1,0,0,1,0,0)">
                <path fill="#030303" d=" M 0 0 M 224 0 C 100.3 0 0 100.3 0 224 C 0 347.7 100.3 448 224 448 C 347.7 448 448 347.7 448 224 C 448 100.30000000000001 347.7 0 224 0 Z M 0 0 M 224 432 C 109.1 432 16 338.9 16 224 C 16 109.10000000000002 109.1 16 224 16 C 338.9 16 432 109.1 432 224 C 432 338.9 338.9 432 224 432 Z" paint-order="stroke fill markers" id="_ED165B85-E65D-42A6-B0EF-8A160356271E?shapeType=BORDER&amp;renderType=FILL" stroke="none"/>
              </g>
            </g>
          </g>
        </g>
        <g transform="matrix(1,0,0,1,28,56)">
          <g/>
        </g>
      </g>
      <g id="_D3E17247-1D94-47D8-93AD-D645E317B736" transform="matrix(1,0,0,1,239,160)" bpmn2nodeid="_D3E17247-1D94-47D8-93AD-D645E317B736">
        <g>
          <path fill="none" stroke="none"/>
        </g>
        <g transform="matrix(1,0,0,1,0,0)">
          <path fill="#ffffff" d=" M 2 0 L 152 0 L 152 0 A 2 2 0 0 1 154 2 L 154 100 L 154 100 A 2 2 0 0 1 152 102 L 2 102 L 2 102 A 2 2 0 0 1 0 100 L 0 2 L 0 2.0000000000000004 A 2 2 0 0 1 1.9999999999999996 0 Z" paint-order="stroke fill markers" id="_D3E17247-1D94-47D8-93AD-D645E317B736?shapeType=BACKGROUND" stroke="none"/>
        </g>
        <g transform="matrix(1,0,0,1,0,0)">
          <path fill="none" stroke-dasharray="" id="_D3E17247-1D94-47D8-93AD-D645E317B736?shapeType=BORDER&amp;renderType=STROKE" paint-order="fill stroke markers" d=" M 2 0 L 152 0 L 152 0 A 2 2 0 0 1 154 2 L 154 100 L 154 100 A 2 2 0 0 1 152 102 L 2 102 L 2 102 A 2 2 0 0 1 0 100 L 0 2 L 0 2.0000000000000004 A 2 2 0 0 1 1.9999999999999996 0 Z" stroke="#000000" stroke-width="1.5" stroke-miterlimit="10"/>
        </g>
        <g>
          <g transform="matrix(0.06,0,0,0.06,9.4,9.4)">
            <g transform="matrix(1,0,0,1,0,0)">
              <path fill="#393f44" d=" M 0 0 M 16 445.2101 C 16 440.86867 18.784312 431.12906000000004 22.001325 424.21728 C 35.767643 394.6402 77.282944 359.28049 129 333.08362 C 144.51625 325.22398 157.34689 319.96394 167.80739 317.17416 C 171.93153 316.07426 175.72913 314.41389999999996 176.5251 313.36265 C 178.89361 310.23449999999997 180.91404 302.90781 181.72673 294.5 L 182.5 286.5 L 178.50715 283.45457 C 166.30327 274.14645 154.2837 251.67767 148.03953 226.5 C 145.61086 216.70715 145.05603000000002 215.46246 142.98364 215.1579 C 141.70332000000002 214.96974 138.08302 212.24302 134.93852 209.09852 C 123.23314 197.39314000000002 116.89146000000001 177.37556 121.43982000000001 166.48978 C 123.00204000000001 162.75088 128.15457 159.00970999999998 131.75 159.00374 C 134.44781 158.99974 134.47062 158.60296 132.91375 138.78796 C 130.92658 113.4962 134.27903 92.26542699999999 143.13217 74.075676 C 152.23162 55.379835 167.56889 42.88208 189.04934 36.659507000000005 C 210.20334 30.531504000000005 237.79666 30.531504000000005 258.95065999999997 36.659507000000005 C 300.04166 48.562968000000005 318.95842 83.80634 314.95504999999997 141 C 314.31982999999997 150.075 313.62402 157.78816 313.4088 158.14035 C 313.19359 158.49254000000002 314.57532 159.07295000000002 316.47931 159.43014000000002 C 328.92867 161.76565000000002 330.98619 177.01772000000003 321.49638 196.62092 C 316.90319 206.10912000000002 309.35724 214.50797 304.81732 215.18517000000003 C 303.02259 215.45289000000002 302.2931 217.14618000000002 299.94277999999997 226.50000000000003 C 296.65948 239.56693 294.47402 245.30522000000002 287.94764 257.99534000000006 C 282.49071999999995 268.60596000000004 273.03466 281.10922000000005 268.10756999999995 284.2288300000001 L 264.87062 286.27832000000006 L 265.51815999999997 292.88916000000006 C 266.34490999999997 301.32961000000006 268.63948999999997 309.8706000000001 270.87735999999995 312.83742000000007 C 272.06735 314.4150200000001 275.00244999999995 315.78963000000005 280.0630699999999 317.13941000000005 C 291.06929999999994 320.0750300000001 303.61700999999994 325.27420000000006 320.99999999999994 334.10171 C 369.81470999999993 358.89104000000003 410.84810999999996 393.75797 425.03216 422.5 C 429.06985999999995 430.68183 432 440.23198 432 445.2101 L 432 448 L 224 448 L 16 448 L 16 445.2101 Z" paint-order="stroke fill markers" id="_D3E17247-1D94-47D8-93AD-D645E317B736undefined" stroke="none"/>
            </g>
          </g>
        </g>
        <g transform="matrix(1,0,0,1,77,36)">
          <g>
            <text x="0" font-size="12pt" y="12" text-decoration="normal" text-anchor="middle" fill="#000000" font-family="Open Sans" dominant-baseline="alphabetic" font-style="normal" stroke="none" font-weight="normal">Self</text>
            <text x="0" font-size="12pt" y="27" text-decoration="normal" text-anchor="middle" fill="#000000" font-family="Open Sans" dominant-baseline="alphabetic" font-style="normal" id="_D3E17247-1D94-47D8-93AD-D645E317B736undefined" stroke="none" font-weight="normal">Evaluation</text>
            <path fill="none" stroke="none"/>
            <text text-anchor="middle" stroke="#393f44" text-decoration="normal" stroke-miterlimit="10" fill="none" stroke-dasharray="" font-weight="normal" font-family="Open Sans" font-style="normal" dominant-baseline="alphabetic" x="0" y="12" font-size="12pt">Self</text>
            <path fill="none" stroke="none"/>
            <text text-anchor="middle" stroke="#393f44" text-decoration="normal" stroke-miterlimit="10" fill="none" stroke-dasharray="" font-weight="normal" font-family="Open Sans" font-style="normal" dominant-baseline="alphabetic" x="0" y="27" font-size="12pt">Evaluation</text>
          </g>
        </g>
      </g>
      <g id="_E35438DF-03AF-4D7B-9DCB-30BC70E7E92E" transform="matrix(1,0,0,1,622,272)" bpmn2nodeid="_E35438DF-03AF-4D7B-9DCB-30BC70E7E92E">
        <g>
          <path fill="none" stroke="none"/>
        </g>
        <g transform="matrix(1,0,0,1,0,0)">
          <path fill="#ffffff" d=" M 2 0 L 152 0 L 152 0 A 2 2 0 0 1 154 2 L 154 100 L 154 100 A 2 2 0 0 1 152 102 L 2 102 L 2 102 A 2 2 0 0 1 0 100 L 0 2 L 0 2.0000000000000004 A 2 2 0 0 1 1.9999999999999996 0 Z" paint-order="stroke fill markers" id="_E35438DF-03AF-4D7B-9DCB-30BC70E7E92E?shapeType=BACKGROUND" stroke="none"/>
        </g>
        <g transform="matrix(1,0,0,1,0,0)">
          <path fill="none" stroke-dasharray="" id="_E35438DF-03AF-4D7B-9DCB-30BC70E7E92E?shapeType=BORDER&amp;renderType=STROKE" paint-order="fill stroke markers" d=" M 2 0 L 152 0 L 152 0 A 2 2 0 0 1 154 2 L 154 100 L 154 100 A 2 2 0 0 1 152 102 L 2 102 L 2 102 A 2 2 0 0 1 0 100 L 0 2 L 0 2.0000000000000004 A 2 2 0 0 1 1.9999999999999996 0 Z" stroke="#000000" stroke-width="1.5" stroke-miterlimit="10"/>
        </g>
        <g>
          <g transform="matrix(0.06,0,0,0.06,9.4,9.4)">
            <g transform="matrix(1,0,0,1,0,0)">
              <path fill="#393f44" d=" M 0 0 M 16 445.2101 C 16 440.86867 18.784312 431.12906000000004 22.001325 424.21728 C 35.767643 394.6402 77.282944 359.28049 129 333.08362 C 144.51625 325.22398 157.34689 319.96394 167.80739 317.17416 C 171.93153 316.07426 175.72913 314.41389999999996 176.5251 313.36265 C 178.89361 310.23449999999997 180.91404 302.90781 181.72673 294.5 L 182.5 286.5 L 178.50715 283.45457 C 166.30327 274.14645 154.2837 251.67767 148.03953 226.5 C 145.61086 216.70715 145.05603000000002 215.46246 142.98364 215.1579 C 141.70332000000002 214.96974 138.08302 212.24302 134.93852 209.09852 C 123.23314 197.39314000000002 116.89146000000001 177.37556 121.43982000000001 166.48978 C 123.00204000000001 162.75088 128.15457 159.00970999999998 131.75 159.00374 C 134.44781 158.99974 134.47062 158.60296 132.91375 138.78796 C 130.92658 113.4962 134.27903 92.26542699999999 143.13217 74.075676 C 152.23162 55.379835 167.56889 42.88208 189.04934 36.659507000000005 C 210.20334 30.531504000000005 237.79666 30.531504000000005 258.95065999999997 36.659507000000005 C 300.04166 48.562968000000005 318.95842 83.80634 314.95504999999997 141 C 314.31982999999997 150.075 313.62402 157.78816 313.4088 158.14035 C 313.19359 158.49254000000002 314.57532 159.07295000000002 316.47931 159.43014000000002 C 328.92867 161.76565000000002 330.98619 177.01772000000003 321.49638 196.62092 C 316.90319 206.10912000000002 309.35724 214.50797 304.81732 215.18517000000003 C 303.02259 215.45289000000002 302.2931 217.14618000000002 299.94277999999997 226.50000000000003 C 296.65948 239.56693 294.47402 245.30522000000002 287.94764 257.99534000000006 C 282.49071999999995 268.60596000000004 273.03466 281.10922000000005 268.10756999999995 284.2288300000001 L 264.87062 286.27832000000006 L 265.51815999999997 292.88916000000006 C 266.34490999999997 301.32961000000006 268.63948999999997 309.8706000000001 270.87735999999995 312.83742000000007 C 272.06735 314.4150200000001 275.00244999999995 315.78963000000005 280.0630699999999 317.13941000000005 C 291.06929999999994 320.0750300000001 303.61700999999994 325.27420000000006 320.99999999999994 334.10171 C 369.81470999999993 358.89104000000003 410.84810999999996 393.75797 425.03216 422.5 C 429.06985999999995 430.68183 432 440.23198 432 445.2101 L 432 448 L 224 448 L 16 448 L 16 445.2101 Z" paint-order="stroke fill markers" id="_E35438DF-03AF-4D7B-9DCB-30BC70E7E92Eundefined" stroke="none"/>
            </g>
          </g>
        </g>
        <g transform="matrix(1,0,0,1,77,36)">
          <g>
            <text x="0" font-size="12pt" y="12" text-decoration="normal" text-anchor="middle" fill="#000000" font-family="Open Sans" dominant-baseline="alphabetic" font-style="normal" stroke="none" font-weight="normal">PM</text>
            <text x="0" font-size="12pt" y="27" text-decoration="normal" text-anchor="middle" fill="#000000" font-family="Open Sans" dominant-baseline="alphabetic" font-style="normal" id="_E35438DF-03AF-4D7B-9DCB-30BC70E7E92Eundefined" stroke="none" font-weight="normal">Evaluation</text>
            <path fill="none" stroke="none"/>
            <text text-anchor="middle" stroke="#393f44" text-decoration="normal" stroke-miterlimit="10" fill="none" stroke-dasharray="" font-weight="normal" font-family="Open Sans" font-style="normal" dominant-baseline="alphabetic" x="0" y="12" font-size="12pt">PM</text>
            <path fill="none" stroke="none"/>
            <text text-anchor="middle" stroke="#393f44" text-decoration="normal" stroke-miterlimit="10" fill="none" stroke-dasharray="" font-weight="normal" font-family="Open Sans" font-style="normal" dominant-baseline="alphabetic" x="0" y="27" font-size="12pt">Evaluation</text>
          </g>
        </g>
      </g>
      <g id="_AB431E82-86BC-460F-9D8B-7A7617565B36" transform="matrix(1,0,0,1,622,81)" bpmn2nodeid="_AB431E82-86BC-460F-9D8B-7A7617565B36">
        <g>
          <path fill="none" stroke="none"/>
        </g>
        <g transform="matrix(1,0,0,1,0,0)">
          <path fill="#ffffff" d=" M 2 0 L 152 0 L 152 0 A 2 2 0 0 1 154 2 L 154 100 L 154 100 A 2 2 0 0 1 152 102 L 2 102 L 2 102 A 2 2 0 0 1 0 100 L 0 2 L 0 2.0000000000000004 A 2 2 0 0 1 1.9999999999999996 0 Z" paint-order="stroke fill markers" id="_AB431E82-86BC-460F-9D8B-7A7617565B36?shapeType=BACKGROUND" stroke="none"/>
        </g>
        <g transform="matrix(1,0,0,1,0,0)">
          <path fill="none" stroke-dasharray="" id="_AB431E82-86BC-460F-9D8B-7A7617565B36?shapeType=BORDER&amp;renderType=STROKE" paint-order="fill stroke markers" d=" M 2 0 L 152 0 L 152 0 A 2 2 0 0 1 154 2 L 154 100 L 154 100 A 2 2 0 0 1 152 102 L 2 102 L 2 102 A 2 2 0 0 1 0 100 L 0 2 L 0 2.0000000000000004 A 2 2 0 0 1 1.9999999999999996 0 Z" stroke="#000000" stroke-width="1.5" stroke-miterlimit="10"/>
        </g>
        <g>
          <g transform="matrix(0.06,0,0,0.06,9.4,9.4)">
            <g transform="matrix(1,0,0,1,0,0)">
              <path fill="#393f44" d=" M 0 0 M 16 445.2101 C 16 440.86867 18.784312 431.12906000000004 22.001325 424.21728 C 35.767643 394.6402 77.282944 359.28049 129 333.08362 C 144.51625 325.22398 157.34689 319.96394 167.80739 317.17416 C 171.93153 316.07426 175.72913 314.41389999999996 176.5251 313.36265 C 178.89361 310.23449999999997 180.91404 302.90781 181.72673 294.5 L 182.5 286.5 L 178.50715 283.45457 C 166.30327 274.14645 154.2837 251.67767 148.03953 226.5 C 145.61086 216.70715 145.05603000000002 215.46246 142.98364 215.1579 C 141.70332000000002 214.96974 138.08302 212.24302 134.93852 209.09852 C 123.23314 197.39314000000002 116.89146000000001 177.37556 121.43982000000001 166.48978 C 123.00204000000001 162.75088 128.15457 159.00970999999998 131.75 159.00374 C 134.44781 158.99974 134.47062 158.60296 132.91375 138.78796 C 130.92658 113.4962 134.27903 92.26542699999999 143.13217 74.075676 C 152.23162 55.379835 167.56889 42.88208 189.04934 36.659507000000005 C 210.20334 30.531504000000005 237.79666 30.531504000000005 258.95065999999997 36.659507000000005 C 300.04166 48.562968000000005 318.95842 83.80634 314.95504999999997 141 C 314.31982999999997 150.075 313.62402 157.78816 313.4088 158.14035 C 313.19359 158.49254000000002 314.57532 159.07295000000002 316.47931 159.43014000000002 C 328.92867 161.76565000000002 330.98619 177.01772000000003 321.49638 196.62092 C 316.90319 206.10912000000002 309.35724 214.50797 304.81732 215.18517000000003 C 303.02259 215.45289000000002 302.2931 217.14618000000002 299.94277999999997 226.50000000000003 C 296.65948 239.56693 294.47402 245.30522000000002 287.94764 257.99534000000006 C 282.49071999999995 268.60596000000004 273.03466 281.10922000000005 268.10756999999995 284.2288300000001 L 264.87062 286.27832000000006 L 265.51815999999997 292.88916000000006 C 266.34490999999997 301.32961000000006 268.63948999999997 309.8706000000001 270.87735999999995 312.83742000000007 C 272.06735 314.4150200000001 275.00244999999995 315.78963000000005 280.0630699999999 317.13941000000005 C 291.06929999999994 320.0750300000001 303.61700999999994 325.27420000000006 320.99999999999994 334.10171 C 369.81470999999993 358.89104000000003 410.84810999999996 393.75797 425.03216 422.5 C 429.06985999999995 430.68183 432 440.23198 432 445.2101 L 432 448 L 224 448 L 16 448 L 16 445.2101 Z" paint-order="stroke fill markers" id="_AB431E82-86BC-460F-9D8B-7A7617565B36undefined" stroke="none"/>
            </g>
          </g>
        </g>
        <g transform="matrix(1,0,0,1,77,36)">
          <g>
            <text x="0" font-size="12pt" y="12" text-decoration="normal" text-anchor="middle" fill="#000000" font-family="Open Sans" dominant-baseline="alphabetic" font-style="normal" stroke="none" font-weight="normal">HR</text>
            <text x="0" font-size="12pt" y="27" text-decoration="normal" text-anchor="middle" fill="#000000" font-family="Open Sans" dominant-baseline="alphabetic" font-style="normal" id="_AB431E82-86BC-460F-9D8B-7A7617565B36undefined" stroke="none" font-weight="normal">Evaluation</text>
            <path fill="none" stroke="none"/>
            <text text-anchor="middle" stroke="#393f44" text-decoration="normal" stroke-miterlimit="10" fill="none" stroke-dasharray="" font-weight="normal" font-family="Open Sans" font-style="normal" dominant-baseline="alphabetic" x="0" y="12" font-size="12pt">HR</text>
            <path fill="none" stroke="none"/>
            <text text-anchor="middle" stroke="#393f44" text-decoration="normal" stroke-miterlimit="10" fill="none" stroke-dasharray="" font-weight="normal" font-family="Open Sans" font-style="normal" dominant-baseline="alphabetic" x="0" y="27" font-size="12pt">Evaluation</text>
          </g>
        </g>
      </g>
      <g id="_930D6071-9D06-42C3-946F-BA46C09EF157" transform="matrix(1,0,0,1,473,183)" bpmn2nodeid="_930D6071-9D06-42C3-946F-BA46C09EF157">
        <g>
          <path fill="none" stroke="none"/>
        </g>
        <g transform="matrix(0.125,0,0,0.125,0,0)">
          <g transform="matrix(1,0,0,1,0,0)">
            <path fill="#fef4ea" d=" M 0 0 M 224.4 4.3 C 216.4 4.3 208.4 7.3 202.3 13.399999999999999 L 13.5 202.2 C 1.3000000000000007 214.39999999999998 1.3000000000000007 234.2 13.5 246.39999999999998 L 202.2 435.09999999999997 C 208.29999999999998 441.2 216.39999999999998 444.2 224.29999999999998 444.2 C 232.2 444.2 240.29999999999998 441.2 246.39999999999998 435.09999999999997 L 435.09999999999997 246.39999999999998 C 447.29999999999995 234.2 447.29999999999995 214.39999999999998 435.09999999999997 202.2 L 246.5 13.4 C 240.4 7.3 232.4 4.3 224.4 4.3 L 224.4 4.3 Z" paint-order="stroke fill markers" id="_930D6071-9D06-42C3-946F-BA46C09EF157?shapeType=BACKGROUND" stroke="none"/>
          </g>
          <g>
            <g transform="matrix(1,0,0,1,0,0)">
              <g transform="matrix(1,0,0,1,0,0)">
                <path fill="#ec7a08" d=" M 0 0 M 20.8 212.7 L 213.3 20.2 C 219.60000000000002 13.899999999999999 229.70000000000002 13.899999999999999 235.9 20.2 L 428.4 212.7 C 434.7 219 434.7 229.1 428.4 235.29999999999998 L 235.9 427.8 C 229.6 434.1 219.5 434.1 213.3 427.8 L 20.8 235.3 C 14.5 229.1 14.5 218.9 20.8 212.7 L 20.8 212.7 Z M 0 0 M 0 224 C 0 232.1 3.1 240.3 9.3 246.5 L 201.5 438.7 C 213.9 451.09999999999997 234.1 451.09999999999997 246.5 438.7 L 438.7 246.5 C 444.9 240.3 448 232.1 448 224 C 448 215.9 444.9 207.7 438.7 201.5 L 246.5 9.3 C 234.1 -3.0999999999999996 213.9 -3.0999999999999996 201.5 9.3 L 9.3 201.5 C 3.1 207.7 0 215.9 0 224 L 0 224 Z" paint-order="stroke fill markers" id="_930D6071-9D06-42C3-946F-BA46C09EF157?shapeType=BORDER&amp;renderType=FILL" stroke="none"/>
              </g>
            </g>
          </g>
          <g>
            <g transform="matrix(1,0,0,1,0,0)">
              <g transform="matrix(1,0,0,1,0,0)">
                <path fill="#ec7a08" d=" M 0 0 M 312 212 L 312 236 C 312 239.4 310.9 242.1 308.5 244.5 C 306.1 246.9 303.4 248 300 248 L 248 248 L 248 300 C 248 303.4 246.9 306.1 244.5 308.5 C 242.1 310.9 239.4 312 236 312 L 212 312 C 208.6 312 205.9 310.9 203.5 308.5 C 201.1 306.1 200 303.4 200 300 L 200 248 L 148 248 C 144.6 248 141.9 246.9 139.5 244.5 C 137.1 242.1 136 239.4 136 236 L 136 212 C 136 208.6 137.1 205.9 139.5 203.5 C 141.9 201.1 144.6 200 148 200 L 200 200 L 200 148 C 200 144.6 201.1 141.9 203.5 139.5 C 205.9 137.1 208.6 136 212 136 L 236 136 C 239.4 136 242.1 137.1 244.5 139.5 C 246.9 141.9 248 144.6 248 148 L 248 200 L 300 200 C 303.4 200 306.1 201.1 308.5 203.5 C 310.9 205.9 312 208.6 312 212 Z" paint-order="stroke fill markers" id="_930D6071-9D06-42C3-946F-BA46C09EF157undefined" stroke="none"/>
              </g>
            </g>
          </g>
        </g>
        <g transform="matrix(1,0,0,1,28,28)">
          <g/>
        </g>
      </g>
      <g id="_06FE5C4E-B2EF-4FD8-A389-1BFAD566FE59" transform="matrix(1,0,0,1,869,183)" bpmn2nodeid="_06FE5C4E-B2EF-4FD8-A389-1BFAD566FE59">
        <g>
          <path fill="none" stroke="none"/>
        </g>
        <g transform="matrix(0.125,0,0,0.125,0,0)">
          <g transform="matrix(1,0,0,1,0,0)">
            <path fill="#fef4ea" d=" M 0 0 M 224.4 4.3 C 216.4 4.3 208.4 7.3 202.3 13.399999999999999 L 13.5 202.2 C 1.3000000000000007 214.39999999999998 1.3000000000000007 234.2 13.5 246.39999999999998 L 202.2 435.09999999999997 C 208.29999999999998 441.2 216.39999999999998 444.2 224.29999999999998 444.2 C 232.2 444.2 240.29999999999998 441.2 246.39999999999998 435.09999999999997 L 435.09999999999997 246.39999999999998 C 447.29999999999995 234.2 447.29999999999995 214.39999999999998 435.09999999999997 202.2 L 246.5 13.4 C 240.4 7.3 232.4 4.3 224.4 4.3 L 224.4 4.3 Z" paint-order="stroke fill markers" id="_06FE5C4E-B2EF-4FD8-A389-1BFAD566FE59?shapeType=BACKGROUND" stroke="none"/>
          </g>
          <g>
            <g transform="matrix(1,0,0,1,0,0)">
              <g transform="matrix(1,0,0,1,0,0)">
                <path fill="#ec7a08" d=" M 0 0 M 20.8 212.7 L 213.3 20.2 C 219.60000000000002 13.899999999999999 229.70000000000002 13.899999999999999 235.9 20.2 L 428.4 212.7 C 434.7 219 434.7 229.1 428.4 235.29999999999998 L 235.9 427.8 C 229.6 434.1 219.5 434.1 213.3 427.8 L 20.8 235.3 C 14.5 229.1 14.5 218.9 20.8 212.7 L 20.8 212.7 Z M 0 0 M 0 224 C 0 232.1 3.1 240.3 9.3 246.5 L 201.5 438.7 C 213.9 451.09999999999997 234.1 451.09999999999997 246.5 438.7 L 438.7 246.5 C 444.9 240.3 448 232.1 448 224 C 448 215.9 444.9 207.7 438.7 201.5 L 246.5 9.3 C 234.1 -3.0999999999999996 213.9 -3.0999999999999996 201.5 9.3 L 9.3 201.5 C 3.1 207.7 0 215.9 0 224 L 0 224 Z" paint-order="stroke fill markers" id="_06FE5C4E-B2EF-4FD8-A389-1BFAD566FE59?shapeType=BORDER&amp;renderType=FILL" stroke="none"/>
              </g>
            </g>
          </g>
          <g>
            <g transform="matrix(1,0,0,1,0,0)">
              <g transform="matrix(1,0,0,1,0,0)">
                <path fill="#ec7a08" d=" M 0 0 M 312 212 L 312 236 C 312 239.4 310.9 242.1 308.5 244.5 C 306.1 246.9 303.4 248 300 248 L 248 248 L 248 300 C 248 303.4 246.9 306.1 244.5 308.5 C 242.1 310.9 239.4 312 236 312 L 212 312 C 208.6 312 205.9 310.9 203.5 308.5 C 201.1 306.1 200 303.4 200 300 L 200 248 L 148 248 C 144.6 248 141.9 246.9 139.5 244.5 C 137.1 242.1 136 239.4 136 236 L 136 212 C 136 208.6 137.1 205.9 139.5 203.5 C 141.9 201.1 144.6 200 148 200 L 200 200 L 200 148 C 200 144.6 201.1 141.9 203.5 139.5 C 205.9 137.1 208.6 136 212 136 L 236 136 C 239.4 136 242.1 137.1 244.5 139.5 C 246.9 141.9 248 144.6 248 148 L 248 200 L 300 200 C 303.4 200 306.1 201.1 308.5 203.5 C 310.9 205.9 312 208.6 312 212 Z" paint-order="stroke fill markers" id="_06FE5C4E-B2EF-4FD8-A389-1BFAD566FE59undefined" stroke="none"/>
              </g>
            </g>
          </g>
        </g>
        <g transform="matrix(1,0,0,1,28,28)">
          <g/>
        </g>
      </g>
      <g id="_B8F3E49D-2C7A-4056-BF49-C61987044DB4" bpmn2nodeid="_B8F3E49D-2C7A-4056-BF49-C61987044DB4">
        <g>
          <path fill="none" stroke-dasharray="" stroke-miterlimit="10" d=" M 159 211 L 224 211" paint-order="fill stroke markers" stroke="#000000"/>
        </g>
        <g transform="matrix(1,0,0,1,159,211)"/>
        <g transform="matrix(6.123233995736766e-17,1,-1,6.123233995736766e-17,239,206)">
          <path fill="#000000" stroke-dasharray="" stroke-miterlimit="10" d=" M 10 15 L 0 15 L 5 0 Z" paint-order="fill stroke markers" stroke="#000000"/>
        </g>
      </g>
      <g id="_9A2B201C-0085-4E2C-A809-57A6437F5C58" bpmn2nodeid="_9A2B201C-0085-4E2C-A809-57A6437F5C58">
        <g>
          <path fill="none" stroke-dasharray="" stroke-miterlimit="10" d=" M 393 211 L 458 211" paint-order="fill stroke markers" stroke="#000000"/>
        </g>
        <g transform="matrix(1,0,0,1,393,211)"/>
        <g transform="matrix(6.123233995736766e-17,1,-1,6.123233995736766e-17,473,206)">
          <path fill="#000000" stroke-dasharray="" stroke-miterlimit="10" d=" M 10 15 L 0 15 L 5 0 Z" paint-order="fill stroke markers" stroke="#000000"/>
        </g>
      </g>
      <g id="_A6C87654-783E-42B5-90C4-329E225C3FE7" bpmn2nodeid="_A6C87654-783E-42B5-90C4-329E225C3FE7">
        <g>
          <path fill="none" stroke-dasharray="" stroke-miterlimit="10" d=" M 529 211 L 610.5678777822483 141.71115758282133" paint-order="fill stroke markers" stroke="#000000"/>
        </g>
        <g transform="matrix(1,0,0,1,529,211)"/>
        <g transform="matrix(0.6474105055214209,0.7621414811834468,-0.7621414811834468,0.6474105055214209,618.7629474723929,128.18929259408276)">
          <path fill="#000000" stroke-dasharray="" stroke-miterlimit="10" d=" M 10 15 L 0 15 L 5 0 Z" paint-order="fill stroke markers" stroke="#000000"/>
        </g>
      </g>
      <g id="_3B15FD72-C455-4CDD-8EFC-601F93DFC333" bpmn2nodeid="_3B15FD72-C455-4CDD-8EFC-601F93DFC333">
        <g>
          <path fill="none" stroke-dasharray="" stroke-miterlimit="10" d=" M 776 132 L 857.5678777822483 201.28884241717867" paint-order="fill stroke markers" stroke="#000000"/>
        </g>
        <g transform="matrix(1,0,0,1,776,132)"/>
        <g transform="matrix(-0.6474105055214208,0.7621414811834469,-0.7621414811834469,-0.6474105055214208,872.2370525276071,207.18929259408276)">
          <path fill="#000000" stroke-dasharray="" stroke-miterlimit="10" d=" M 10 15 L 0 15 L 5 0 Z" paint-order="fill stroke markers" stroke="#000000"/>
        </g>
      </g>
      <g id="_0F9569B8-E7AA-47BC-9EF7-0891A44A7FC9" bpmn2nodeid="_0F9569B8-E7AA-47BC-9EF7-0891A44A7FC9">
        <g>
          <path fill="none" stroke-dasharray="" stroke-miterlimit="10" d=" M 529 211 L 612.4175185205148 311.4598072505125" paint-order="fill stroke markers" stroke="#000000"/>
        </g>
        <g transform="matrix(1,0,0,1,529,211)"/>
        <g transform="matrix(-0.7693461832991666,0.6388320986323442,-0.6388320986323442,-0.7693461832991666,625.8467309164959,319.80583950683825)">
          <path fill="#000000" stroke-dasharray="" stroke-miterlimit="10" d=" M 10 15 L 0 15 L 5 0 Z" paint-order="fill stroke markers" stroke="#000000"/>
        </g>
      </g>
      <g id="_8CE70F4F-E126-45C1-92F1-E41B73561154" bpmn2nodeid="_8CE70F4F-E126-45C1-92F1-E41B73561154">
        <g>
          <path fill="none" stroke-dasharray="" stroke-miterlimit="10" d=" M 776 323 L 859.4175185205148 222.54019274948752" paint-order="fill stroke markers" stroke="#000000"/>
        </g>
        <g transform="matrix(1,0,0,1,776,323)"/>
        <g transform="matrix(0.7693461832991665,0.6388320986323444,-0.6388320986323444,0.7693461832991665,865.1532690835041,207.80583950683828)">
          <path fill="#000000" stroke-dasharray="" stroke-miterlimit="10" d=" M 10 15 L 0 15 L 5 0 Z" paint-order="fill stroke markers" stroke="#000000"/>
        </g>
      </g>
      <g transform="matrix(1,0,0,1,103,183)"/>
      <g transform="matrix(1,0,0,1,239,160)"/>
      <g transform="matrix(1,0,0,1,622,272)"/>
      <g transform="matrix(1,0,0,1,622,81)"/>
      <g transform="matrix(1,0,0,1,473,183)"/>
      <g transform="matrix(1,0,0,1,869,183)"/>
      <g id="_EEC58A7A-AEAE-459B-9279-D3FC7DE4A619" transform="matrix(1,0,0,1,1005,183)" bpmn2nodeid="_EEC58A7A-AEAE-459B-9279-D3FC7DE4A619">
        <g>
          <path fill="none" stroke="none"/>
        </g>
        <g transform="matrix(0.125,0,0,0.125,0,0)">
          <g transform="matrix(1,0,0,1,0,0)">
            <path fill="#fce7e7" d=" M 0 0 M 444 224 C 444 263.9 434.2 300.8 414.4 334.5 C 394.7 368.2 368 394.9 334.4 414.5 C 300.79999999999995 434.1 263.9 444 224 444 C 184.10000000000002 444 147.2 434.2 113.5 414.4 C 79.8 394.7 53.1 368 33.5 334.4 C 13.899999999999999 300.79999999999995 4 263.9 4 224 C 4 184.10000000000002 13.8 147.2 33.6 113.5 C 53.400000000000006 79.80000000000001 80.1 53.1 113.6 33.5 C 147.1 13.899999999999999 184.1 4 224 4 C 263.9 4 300.8 13.8 334.5 33.6 C 368.2 53.400000000000006 394.9 80.1 414.5 113.6 C 434.1 147.1 444 184.1 444 224 Z" paint-order="stroke fill markers" id="_EEC58A7A-AEAE-459B-9279-D3FC7DE4A619?shapeType=BACKGROUND" stroke="none"/>
          </g>
          <g>
            <g transform="matrix(1,0,0,1,0,0)">
              <g transform="matrix(1,0,0,1,0,0)">
                <path fill="#a30000" d=" M 0 0 M 224 0 C 100.3 0 0 100.3 0 224 C 0 347.7 100.3 448 224 448 C 347.7 448 448 347.7 448 224 C 448 100.30000000000001 347.7 0 224 0 Z M 0 0 M 224 400 C 126.8 400 48 321.2 48 224 C 48 126.80000000000001 126.8 48 224 48 C 321.2 48 400 126.8 400 224 C 400 321.2 321.2 400 224 400 Z" paint-order="stroke fill markers" id="_EEC58A7A-AEAE-459B-9279-D3FC7DE4A619?shapeType=BORDER&amp;renderType=FILL" stroke="none"/>
              </g>
            </g>
          </g>
          <g>
            <g transform="matrix(1,0,0,1,0,0)">
              <g transform="matrix(1,0,0,1,0,0)">
                <path fill="#a30000" d=" M 0 0 M 320.2 220.7 C 320.2 238.1 315.9 254.2 307.3 268.9 C 298.7 283.59999999999997 287.1 295.29999999999995 272.40000000000003 303.79999999999995 C 257.70000000000005 312.4 241.60000000000002 316.69999999999993 224.20000000000005 316.69999999999993 C 206.80000000000007 316.69999999999993 190.70000000000005 312.3999999999999 176.00000000000006 303.79999999999995 C 161.30000000000007 295.19999999999993 149.70000000000005 283.59999999999997 141.10000000000005 268.9 C 132.50000000000006 254.2 128.30000000000004 238.09999999999997 128.30000000000004 220.7 C 128.30000000000004 203.3 132.60000000000005 187.2 141.20000000000005 172.5 C 149.80000000000004 157.8 161.40000000000003 146.1 176.10000000000005 137.5 C 190.80000000000004 128.9 206.90000000000006 124.7 224.30000000000007 124.7 C 241.70000000000007 124.7 257.80000000000007 129 272.50000000000006 137.6 C 287.20000000000005 146.2 298.90000000000003 157.9 307.40000000000003 172.5 C 316 187.2 320.2 203.3 320.2 220.7 Z" paint-order="stroke fill markers" id="_EEC58A7A-AEAE-459B-9279-D3FC7DE4A619undefined" stroke="none"/>
              </g>
            </g>
          </g>
        </g>
        <g transform="matrix(1,0,0,1,28,56)">
          <g/>
        </g>
      </g>
      <g id="_B5A0D311-40D0-450A-BFC3-411327C3CB05" bpmn2nodeid="_B5A0D311-40D0-450A-BFC3-411327C3CB05">
        <g>
          <path fill="none" stroke-dasharray="" stroke-miterlimit="10" d=" M 925 211 L 990 211" paint-order="fill stroke markers" stroke="#000000"/>
        </g>
        <g transform="matrix(1,0,0,1,925,211)"/>
        <g transform="matrix(6.123233995736766e-17,1,-1,6.123233995736766e-17,1005,206)">
          <path fill="#000000" stroke-dasharray="" stroke-miterlimit="10" d=" M 10 15 L 0 15 L 5 0 Z" paint-order="fill stroke markers" stroke="#000000"/>
        </g>
      </g>
      <g transform="matrix(1,0,0,1,1005,183)"/>
    </g>
  </g>
</svg>